<mxfile host="app.diagrams.net" modified="2024-03-09T21:23:49.951Z" agent="Mozilla/5.0 (Windows NT 10.0; Win64; x64) AppleWebKit/537.36 (KHTML, like Gecko) Chrome/122.0.0.0 Safari/537.36" etag="W2oxMmTikdaPmWCtwznk" version="24.0.3" type="device">
  <diagram name="Page-1" id="90a13364-a465-7bf4-72fc-28e22215d7a0">
    <mxGraphModel dx="2462" dy="922" grid="1" gridSize="10" guides="1" tooltips="1" connect="1" arrows="1" fold="1" page="1" pageScale="1.5" pageWidth="1169" pageHeight="826" background="none" math="0" shadow="0">
      <root>
        <mxCell id="0" style=";html=1;" />
        <mxCell id="1" style=";html=1;" parent="0" />
        <mxCell id="3a17f1ce550125da-4" value="Laser" style="whiteSpace=wrap;html=1;shadow=1;fontSize=18;fillColor=#ffe6cc;strokeColor=#d79b00;" parent="1" vertex="1">
          <mxGeometry x="673" y="510" width="120" height="60" as="geometry" />
        </mxCell>
        <mxCell id="1jCkPo_z_0LnxoEgLk_F-8" value="" style="edgeStyle=orthogonalEdgeStyle;rounded=0;orthogonalLoop=1;jettySize=auto;html=1;" edge="1" parent="1" source="3a17f1ce550125da-7" target="1jCkPo_z_0LnxoEgLk_F-3">
          <mxGeometry relative="1" as="geometry" />
        </mxCell>
        <mxCell id="3a17f1ce550125da-7" value="RX" style="whiteSpace=wrap;html=1;shadow=1;fontSize=18;fillColor=#ffe6cc;strokeColor=#d79b00;" parent="1" vertex="1">
          <mxGeometry x="900" y="590" width="120" height="60" as="geometry" />
        </mxCell>
        <mxCell id="1jCkPo_z_0LnxoEgLk_F-4" style="edgeStyle=orthogonalEdgeStyle;rounded=0;orthogonalLoop=1;jettySize=auto;html=1;" edge="1" parent="1" source="1jCkPo_z_0LnxoEgLk_F-1" target="1jCkPo_z_0LnxoEgLk_F-2">
          <mxGeometry relative="1" as="geometry" />
        </mxCell>
        <mxCell id="1jCkPo_z_0LnxoEgLk_F-1" value="Buttons" style="whiteSpace=wrap;html=1;shadow=1;fontSize=18;fillColor=#ffe6cc;strokeColor=#d79b00;" vertex="1" parent="1">
          <mxGeometry x="530" y="590" width="120" height="60" as="geometry" />
        </mxCell>
        <mxCell id="1jCkPo_z_0LnxoEgLk_F-6" style="edgeStyle=orthogonalEdgeStyle;rounded=0;orthogonalLoop=1;jettySize=auto;html=1;" edge="1" parent="1" source="1jCkPo_z_0LnxoEgLk_F-2" target="3a17f1ce550125da-7">
          <mxGeometry relative="1" as="geometry" />
        </mxCell>
        <mxCell id="1jCkPo_z_0LnxoEgLk_F-18" value="ESP-NOW" style="edgeLabel;html=1;align=center;verticalAlign=middle;resizable=0;points=[];" vertex="1" connectable="0" parent="1jCkPo_z_0LnxoEgLk_F-6">
          <mxGeometry x="0.0279" y="-1" relative="1" as="geometry">
            <mxPoint x="2" y="-11" as="offset" />
          </mxGeometry>
        </mxCell>
        <mxCell id="1jCkPo_z_0LnxoEgLk_F-7" value="" style="edgeStyle=orthogonalEdgeStyle;rounded=0;orthogonalLoop=1;jettySize=auto;html=1;" edge="1" parent="1" source="1jCkPo_z_0LnxoEgLk_F-2" target="3a17f1ce550125da-4">
          <mxGeometry relative="1" as="geometry" />
        </mxCell>
        <mxCell id="1jCkPo_z_0LnxoEgLk_F-2" value="TX" style="whiteSpace=wrap;html=1;shadow=1;fontSize=18;fillColor=#ffe6cc;strokeColor=#d79b00;" vertex="1" parent="1">
          <mxGeometry x="673" y="590" width="120" height="60" as="geometry" />
        </mxCell>
        <mxCell id="1jCkPo_z_0LnxoEgLk_F-11" value="" style="edgeStyle=orthogonalEdgeStyle;rounded=0;orthogonalLoop=1;jettySize=auto;html=1;" edge="1" parent="1" source="1jCkPo_z_0LnxoEgLk_F-3" target="1jCkPo_z_0LnxoEgLk_F-10">
          <mxGeometry relative="1" as="geometry" />
        </mxCell>
        <mxCell id="1jCkPo_z_0LnxoEgLk_F-3" value="USB HID" style="whiteSpace=wrap;html=1;shadow=1;fontSize=18;fillColor=#ffe6cc;strokeColor=#d79b00;" vertex="1" parent="1">
          <mxGeometry x="1040" y="590" width="120" height="60" as="geometry" />
        </mxCell>
        <mxCell id="1jCkPo_z_0LnxoEgLk_F-10" value="PC" style="whiteSpace=wrap;html=1;shadow=1;fontSize=18;fillColor=#ffe6cc;strokeColor=#d79b00;" vertex="1" parent="1">
          <mxGeometry x="1180" y="590" width="120" height="60" as="geometry" />
        </mxCell>
      </root>
    </mxGraphModel>
  </diagram>
</mxfile>
